<svg width="725" height="1196" viewBox="0 0 725 1196" fill="none" xmlns="http://www.w3.org/2000/svg">
<path d="M1310.97 479.194C1310.97 479.194 1204.94 466.164 1148.17 495.473C1104.43 518.05 1101.54 561.386 1057.16 582.661C1000.93 609.612 963.644 604.155 897.627 589.217C831.611 574.28 766.376 540.161 699.783 579.522C637.17 616.531 618.16 673.576 611.625 743.579C605.09 813.583 609.494 918.592 567.673 954.8C525.852 991.008 503.613 966.648 452.3 992.638C400.988 1018.63 379.233 1065.71 351.661 1136.73C343.466 1157.84 339.392 1195.05 339.392 1195.05" stroke="#C5D2ED" stroke-width="3"/>
<path d="M1278.49 419.007C1278.49 419.007 1172.46 405.977 1115.68 435.286C1071.95 457.863 1069.06 501.199 1024.67 522.474C968.446 549.426 931.161 543.968 865.144 529.03C799.128 514.093 733.893 479.974 667.3 519.336C604.687 556.344 585.677 613.389 579.142 683.393C572.607 753.396 577.011 858.406 535.19 894.613C493.369 930.821 471.13 906.461 419.818 932.451C368.505 958.442 346.75 1005.52 319.178 1076.54C310.983 1097.65 306.909 1134.87 306.909 1134.87" stroke="#C5D2ED" stroke-width="3"/>
<path d="M1246 358.823C1246 358.823 1139.98 345.792 1083.2 375.101C1039.46 397.678 1036.57 441.014 992.19 462.289C935.963 489.241 898.678 483.783 832.662 468.846C766.645 453.908 701.41 419.79 634.817 459.151C572.204 496.16 553.195 553.204 546.659 623.208C540.124 693.212 544.528 798.221 502.707 834.429C460.886 870.637 438.648 846.276 387.335 872.267C336.022 898.257 314.267 945.34 286.696 1016.36C278.5 1037.46 274.426 1074.68 274.426 1074.68" stroke="#C5D2ED" stroke-width="3"/>
<path d="M1213.52 298.636C1213.52 298.636 1107.49 285.606 1050.72 314.915C1006.98 337.491 1004.09 380.828 959.707 402.103C903.481 429.054 866.195 423.597 800.179 408.659C734.163 393.721 668.927 359.603 602.334 398.964C539.721 435.973 520.712 493.018 514.177 563.021C507.641 633.025 512.045 738.034 470.224 774.242C428.403 810.45 406.165 786.09 354.852 812.08C303.539 838.07 281.784 885.154 254.213 956.169C246.017 977.278 241.943 1014.5 241.943 1014.5" stroke="#C5D2ED" stroke-width="3"/>
<path d="M1181.03 238.451C1181.03 238.451 1075.01 225.421 1018.23 254.73C974.494 277.307 971.604 320.643 927.22 341.918C870.994 368.87 833.708 363.412 767.692 348.474C701.676 333.537 636.44 299.418 569.847 338.779C507.234 375.788 488.225 432.833 481.69 502.837C475.155 572.84 479.558 677.849 437.737 714.057C395.916 750.265 373.678 725.905 322.365 751.895C271.052 777.885 249.298 824.969 221.726 895.985C213.531 917.093 209.456 954.311 209.456 954.311" stroke="#C5D2ED" stroke-width="3"/>
<path d="M1148.55 178.265C1148.55 178.265 1042.52 165.235 985.746 194.544C942.01 217.121 939.12 260.457 894.736 281.732C838.51 308.683 801.224 303.226 735.208 288.288C669.192 273.351 603.957 239.232 537.363 278.593C474.751 315.602 455.741 372.647 449.206 442.65C442.671 512.654 447.075 617.663 405.254 653.871C363.433 690.079 341.194 665.719 289.881 691.709C238.568 717.699 216.814 764.783 189.242 835.799C181.047 856.907 176.973 894.125 176.973 894.125" stroke="#C5D2ED" stroke-width="3"/>
</svg>
