<svg width="668" height="1233" viewBox="0 0 668 1233" fill="none" xmlns="http://www.w3.org/2000/svg">
<path d="M-440.212 144.383C-440.212 144.383 -398.183 242.592 -344.307 276.943C-302.806 303.404 -263.889 284.12 -223.188 311.795C-171.626 346.855 -157.603 381.832 -137.333 446.41C-117.064 510.989 -113.768 584.534 -46.2682 622.318C17.1977 657.844 76.0675 645.604 139.87 616.067C203.672 586.529 292.238 529.94 344.561 547.894C396.883 565.848 387.003 597.317 435.263 628.613C483.524 659.909 535.162 655.049 610.413 643.188C632.781 639.663 667.003 624.478 667.003 624.478" stroke="#C5D2ED" stroke-width="3"/>
<path d="M-475.916 202.717C-475.916 202.717 -433.887 300.925 -380.01 335.277C-338.509 361.738 -299.593 342.453 -258.891 370.129C-207.33 405.189 -193.306 440.165 -173.037 504.744C-152.767 569.323 -149.472 642.868 -81.9716 680.652C-18.5058 716.178 40.3641 703.938 104.167 674.401C167.969 644.863 256.535 588.273 308.858 606.227C361.18 624.182 351.299 655.651 399.56 686.947C447.82 718.242 499.459 713.383 574.71 701.522C597.077 697.997 631.3 682.811 631.3 682.811" stroke="#C5D2ED" stroke-width="3"/>
<path d="M-511.618 261.05C-511.618 261.05 -469.588 359.258 -415.712 393.61C-374.211 420.071 -335.294 400.786 -294.593 428.462C-243.031 463.522 -229.008 498.498 -208.738 563.077C-188.469 627.656 -185.174 701.201 -117.673 738.985C-54.2075 774.511 4.66239 762.271 68.4648 732.734C132.267 703.196 220.833 646.606 273.156 664.56C325.478 682.514 315.597 713.984 363.858 745.28C412.119 776.575 463.757 771.715 539.008 759.855C561.376 756.33 595.598 741.144 595.598 741.144" stroke="#C5D2ED" stroke-width="3"/>
<path d="M-547.321 319.384C-547.321 319.384 -505.292 417.592 -451.415 451.943C-409.914 478.404 -370.998 459.12 -330.296 486.796C-278.735 521.856 -264.711 556.832 -244.442 621.411C-224.172 685.99 -220.877 759.534 -153.377 797.319C-89.9109 832.845 -31.041 820.605 32.7614 791.067C96.5638 761.53 185.13 704.94 237.452 722.894C289.775 740.848 279.894 772.318 328.155 803.613C376.415 834.909 428.053 830.049 503.305 818.189C525.672 814.663 559.895 799.478 559.895 799.478" stroke="#C5D2ED" stroke-width="3"/>
<path d="M-583.021 377.72C-583.021 377.72 -540.992 475.928 -487.115 510.28C-445.614 536.741 -406.698 517.456 -365.996 545.132C-314.435 580.192 -300.411 615.168 -280.142 679.747C-259.872 744.326 -256.577 817.871 -189.077 855.655C-125.611 891.181 -66.7409 878.941 -2.93848 849.404C60.8639 819.866 149.43 763.276 201.753 781.23C254.075 799.185 244.194 830.654 292.455 861.95C340.715 893.245 392.353 888.386 467.605 876.525C489.972 873 524.195 857.814 524.195 857.814" stroke="#C5D2ED" stroke-width="3"/>
<path d="M-618.723 436.054C-618.723 436.054 -576.694 534.263 -522.818 568.614C-481.316 595.075 -442.4 575.791 -401.699 603.466C-350.137 638.526 -336.114 673.503 -315.844 738.082C-295.575 802.66 -292.279 876.205 -224.779 913.99C-161.313 949.516 -102.443 937.276 -38.6409 907.738C25.1615 878.2 113.728 821.611 166.05 839.565C218.373 857.519 208.492 888.989 256.752 920.284C305.013 951.58 356.651 946.72 431.902 934.86C454.27 931.334 488.492 916.149 488.492 916.149" stroke="#C5D2ED" stroke-width="3"/>
</svg>
