<svg width="707" height="1392" viewBox="0 0 707 1392" fill="none" xmlns="http://www.w3.org/2000/svg">
<path d="M-47.9241 86.0696C-47.9241 86.0696 -56.6603 192.536 -25.0815 248.083C-0.756196 290.871 42.6614 292.008 65.7121 335.496C94.9133 390.587 90.9663 428.063 78.708 494.629C66.4497 561.194 34.9946 627.755 77.0139 692.703C116.522 753.77 174.288 770.459 244.499 774.161C314.709 777.863 419.455 769.22 457.323 809.544C495.19 849.868 471.749 873.073 499.791 923.294C527.833 973.515 575.757 993.35 647.828 1018.03C669.251 1025.37 706.603 1027.93 706.603 1027.93" stroke="#C5D2ED" stroke-width="3"/>
<path d="M-106.749 120.957C-106.749 120.957 -115.486 227.424 -83.9067 282.97C-59.5814 325.758 -16.1639 326.895 6.88683 370.383C36.0881 425.475 32.1411 462.951 19.8828 529.516C7.62445 596.082 -23.8306 662.643 18.1887 727.591C57.6966 788.658 115.463 805.347 185.673 809.049C255.884 812.751 360.63 804.108 398.497 844.432C436.365 884.756 412.923 907.961 440.965 958.182C469.007 1008.4 516.931 1028.24 589.003 1052.92C610.425 1060.25 647.777 1062.82 647.777 1062.82" stroke="#C5D2ED" stroke-width="3"/>
<path d="M-165.573 155.845C-165.573 155.845 -174.309 262.311 -142.73 317.858C-118.405 360.646 -74.9871 361.783 -51.9364 405.271C-22.7352 460.363 -26.6822 497.838 -38.9405 564.404C-51.1988 630.97 -82.6539 697.531 -40.6346 762.479C-1.12663 823.546 56.6397 840.235 126.85 843.937C197.061 847.639 301.806 838.996 339.674 879.32C377.542 919.644 354.1 942.849 382.142 993.07C410.184 1043.29 458.108 1063.13 530.18 1087.81C551.602 1095.14 588.954 1097.71 588.954 1097.71" stroke="#C5D2ED" stroke-width="3"/>
<path d="M-224.398 190.733C-224.398 190.733 -233.134 297.199 -201.555 352.746C-177.23 395.534 -133.812 396.671 -110.762 440.159C-81.5604 495.251 -85.5075 532.726 -97.7658 599.292C-110.024 665.858 -141.479 732.418 -99.4598 797.367C-59.9519 858.433 -2.18558 875.123 68.0249 878.825C138.235 882.526 242.981 873.884 280.849 914.208C318.717 954.532 295.275 977.736 323.317 1027.96C351.359 1078.18 399.283 1098.01 471.354 1122.69C492.777 1130.03 530.129 1132.6 530.129 1132.6" stroke="#C5D2ED" stroke-width="3"/>
<path d="M-283.221 225.625C-283.221 225.625 -291.957 332.091 -260.379 387.638C-236.053 430.426 -192.636 431.563 -169.585 475.051C-140.384 530.142 -144.331 567.618 -156.589 634.184C-168.847 700.75 -200.302 767.31 -158.283 832.259C-118.775 893.325 -61.0088 910.015 9.20167 913.716C79.4122 917.418 184.158 908.775 222.026 949.1C259.893 989.424 236.452 1012.63 264.494 1062.85C292.536 1113.07 340.46 1132.9 412.531 1157.58C433.954 1164.92 471.306 1167.49 471.306 1167.49" stroke="#C5D2ED" stroke-width="3"/>
<path d="M-342.046 260.514C-342.046 260.514 -350.782 366.98 -319.203 422.527C-294.878 465.314 -251.46 466.452 -228.41 509.939C-199.208 565.031 -203.155 602.507 -215.414 669.073C-227.672 735.638 -259.127 802.199 -217.108 867.147C-177.6 928.214 -119.833 944.903 -49.6229 948.605C20.5876 952.307 125.333 943.664 163.201 983.988C201.069 1024.31 177.627 1047.52 205.669 1097.74C233.711 1147.96 281.635 1167.79 353.707 1192.47C375.129 1199.81 412.481 1202.38 412.481 1202.38" stroke="#C5D2ED" stroke-width="3"/>
</svg>
