<svg width="603" height="981" viewBox="0 0 603 981" fill="none" xmlns="http://www.w3.org/2000/svg">
<path d="M1291.7 528.896C1291.7 528.896 1192.26 489.855 1129.97 504.09C1081.99 515.056 1068.39 556.304 1020.11 565.847C958.938 577.937 924.189 563.36 863.978 532.442C803.767 501.524 749.092 452.225 674.791 473.749C604.931 493.987 572.305 544.494 548.531 610.661C524.757 676.827 502.853 779.621 453.328 804.265C403.803 828.908 388.337 799.775 332.166 812.158C275.995 824.54 243.194 864.717 198.794 926.621C185.597 945.022 172.377 980.05 172.377 980.05" stroke="#C5D2ED" stroke-width="3"/>
<path d="M1275.24 462.514C1275.24 462.514 1175.8 423.472 1113.51 437.707C1065.53 448.673 1051.93 489.921 1003.65 499.465C942.479 511.554 907.73 496.977 847.519 466.059C787.308 435.141 732.633 385.842 658.332 407.366C588.472 427.604 555.846 478.112 532.072 544.278C508.297 610.445 486.393 713.239 436.869 737.882C387.344 762.525 371.878 733.392 315.707 745.775C259.536 758.158 226.734 798.334 182.335 860.239C169.138 878.639 155.918 913.667 155.918 913.667" stroke="#C5D2ED" stroke-width="3"/>
<path d="M1258.78 396.133C1258.78 396.133 1159.34 357.091 1097.05 371.327C1049.07 382.292 1035.47 423.541 987.188 433.084C926.019 445.173 891.27 430.596 831.059 399.678C770.848 368.76 716.173 319.461 641.872 340.985C572.012 361.223 539.386 411.731 515.612 477.897C491.838 544.064 469.934 646.858 420.409 671.501C370.884 696.145 355.418 667.011 299.247 679.394C243.076 691.777 210.275 731.953 165.875 793.858C152.678 812.258 139.458 847.286 139.458 847.286" stroke="#C5D2ED" stroke-width="3"/>
<path d="M1242.32 329.75C1242.32 329.75 1142.88 290.709 1080.59 304.944C1032.61 315.909 1019.01 357.158 970.729 366.701C909.56 378.791 874.811 364.213 814.6 333.295C754.389 302.378 699.714 253.079 625.413 274.603C555.553 294.84 522.927 345.348 499.153 411.515C475.379 477.681 453.475 580.475 403.95 605.118C354.425 629.762 338.959 600.628 282.788 613.011C226.617 625.394 193.815 665.571 149.416 727.475C136.219 745.875 122.999 780.904 122.999 780.904" stroke="#C5D2ED" stroke-width="3"/>
<path d="M1225.86 263.368C1225.86 263.368 1126.42 224.327 1064.13 238.562C1016.15 249.527 1002.55 290.776 954.265 300.319C893.096 312.409 858.347 297.831 798.136 266.914C737.925 235.996 683.25 186.697 608.949 208.221C539.089 228.458 506.463 278.966 482.689 345.133C458.915 411.299 437.011 514.093 387.486 538.737C337.962 563.38 322.495 534.247 266.325 546.629C210.154 559.012 177.352 599.189 132.953 661.093C119.756 679.493 106.535 714.522 106.535 714.522" stroke="#C5D2ED" stroke-width="3"/>
<path d="M1209.39 196.986C1209.39 196.986 1109.96 157.944 1047.67 172.18C999.689 183.145 986.09 224.394 937.805 233.937C876.636 246.026 841.887 231.449 781.676 200.531C721.465 169.613 666.79 120.314 592.489 141.838C522.629 162.076 490.003 212.584 466.229 278.75C442.455 344.917 420.551 447.711 371.026 472.354C321.501 496.998 306.035 467.864 249.864 480.247C193.693 492.63 160.892 532.807 116.492 594.711C103.295 613.111 90.0747 648.139 90.0747 648.139" stroke="#C5D2ED" stroke-width="3"/>
</svg>
