<svg width="996" height="1289" viewBox="0 0 996 1289" fill="none" xmlns="http://www.w3.org/2000/svg">
<mask id="mask0_0_97" style="mask-type:alpha" maskUnits="userSpaceOnUse" x="-481" y="0" width="1477" height="1289">
<rect x="-481" y="592.996" width="1252" height="790" transform="rotate(-28.2708 -481 592.996)" fill="url(#paint0_radial_0_97)"/>
</mask>
<g mask="url(#mask0_0_97)">
<path d="M885.044 543.59C885.044 543.59 779.038 530.4 722.217 559.624C678.447 582.135 675.492 625.467 631.076 646.675C574.809 673.543 537.532 668.029 471.538 652.992C405.545 637.956 340.36 603.739 273.708 643C211.04 679.915 191.945 736.931 185.305 806.925C178.664 876.919 182.91 981.934 141.035 1018.08C99.1597 1054.22 76.9578 1029.83 25.606 1055.74C-25.7458 1081.66 -47.5711 1128.71 -75.2494 1199.68C-83.4764 1220.78 -87.6065 1257.99 -87.6065 1257.99" stroke="white" stroke-opacity="0.3" stroke-width="3"/>
<path d="M852.652 483.354C852.652 483.354 746.645 470.165 689.824 499.389C646.055 521.9 643.099 565.231 598.684 586.44C542.417 613.307 505.14 607.793 439.146 592.757C373.152 577.72 307.968 543.504 241.316 582.765C178.648 619.679 159.552 676.696 152.912 746.689C146.272 816.683 150.518 921.699 108.643 957.844C66.7674 993.989 44.5654 969.595 -6.78639 995.508C-58.1382 1021.42 -79.9635 1068.47 -107.642 1139.45C-115.869 1160.54 -119.999 1197.75 -119.999 1197.75" stroke="white" stroke-opacity="0.3" stroke-width="3"/>
<path d="M820.26 423.121C820.26 423.121 714.253 409.932 657.432 439.155C613.662 461.666 610.707 504.998 566.291 526.206C510.025 553.074 472.747 547.56 406.753 532.523C340.76 517.487 275.576 483.27 208.924 522.531C146.255 559.446 127.16 616.462 120.52 686.456C113.879 756.45 118.126 861.465 76.2503 897.61C34.375 933.755 12.173 909.362 -39.1788 935.275C-90.5306 961.188 -112.356 1008.24 -140.034 1079.21C-148.261 1100.31 -152.391 1137.52 -152.391 1137.52" stroke="white" stroke-opacity="0.3" stroke-width="3"/>
<path d="M787.867 362.886C787.867 362.886 681.861 349.696 625.039 378.92C581.27 401.431 578.314 444.763 533.899 465.971C477.632 492.838 440.355 487.325 374.361 472.288C308.367 457.251 243.183 423.035 176.531 462.296C113.863 499.21 94.7676 556.227 88.1273 626.221C81.487 696.214 85.7331 801.23 43.8578 837.375C1.9825 873.52 -20.2194 849.126 -71.5712 875.04C-122.923 900.953 -144.748 948.003 -172.427 1018.98C-180.654 1040.07 -184.784 1077.29 -184.784 1077.29" stroke="white" stroke-opacity="0.3" stroke-width="3"/>
<path d="M755.471 302.652C755.471 302.652 649.464 289.463 592.643 318.686C548.873 341.198 545.918 384.529 501.503 405.738C445.236 432.605 407.958 427.091 341.965 412.054C275.971 397.018 210.787 362.801 144.135 402.063C81.4664 438.977 62.3713 495.993 55.731 565.987C49.0907 635.981 53.3367 740.997 11.4614 777.142C-30.4139 813.286 -52.6158 788.893 -103.968 814.806C-155.319 840.719 -177.145 887.77 -204.823 958.744C-213.05 979.841 -217.18 1017.05 -217.18 1017.05" stroke="white" stroke-opacity="0.3" stroke-width="3"/>
<path d="M723.077 242.417C723.077 242.417 617.071 229.228 560.25 258.452C516.48 280.963 513.525 324.294 469.109 345.503C412.842 372.37 375.565 366.856 309.571 351.82C243.577 336.783 178.393 302.567 111.741 341.828C49.073 378.742 29.9778 435.759 23.3375 505.752C16.6972 575.746 20.9433 680.762 -20.932 716.907C-62.8073 753.052 -85.0092 728.658 -136.361 754.571C-187.713 780.485 -209.538 827.535 -237.216 898.509C-245.443 919.606 -249.574 956.817 -249.574 956.817" stroke="white" stroke-opacity="0.3" stroke-width="3"/>
</g>
<defs>
<radialGradient id="paint0_radial_0_97" cx="0" cy="0" r="1" gradientUnits="userSpaceOnUse" gradientTransform="translate(145 1125.5) rotate(-90) scale(361 450.336)">
<stop stop-color="#C4C4C4"/>
<stop offset="0.505208" stop-color="#C4C4C4" stop-opacity="0.37"/>
<stop offset="1" stop-color="#C4C4C4" stop-opacity="0"/>
</radialGradient>
</defs>
</svg>
