<svg width="964" height="632" viewBox="0 0 964 632" fill="none" xmlns="http://www.w3.org/2000/svg">
<mask id="mask0_0_52" style="mask-type:alpha" maskUnits="userSpaceOnUse" x="0" y="-792" width="1460" height="1424">
<rect x="526.594" y="-792" width="1252" height="790" transform="rotate(41.8032 526.594 -792)" fill="url(#paint0_radial_0_52)"/>
</mask>
<g mask="url(#mask0_0_52)">
<path d="M1038.6 475.426C1038.6 475.426 1014.87 371.27 968.033 327.81C931.952 294.333 890.207 306.323 855.132 271.794C810.697 228.052 803.176 191.127 794.821 123.96C786.467 56.7924 796.419 -16.1505 736.793 -65.4319C680.731 -111.768 620.62 -110.288 552.554 -92.6765C484.487 -75.0649 387.205 -35.2829 338.953 -62.3328C290.7 -89.3827 306.067 -118.569 264.204 -158.015C222.341 -197.461 170.669 -201.945 94.5107 -203.777C71.8736 -204.322 35.4822 -195.523 35.4822 -195.523" stroke="white" stroke-opacity="0.3" stroke-width="3"/>
<path d="M1084.19 424.444C1084.19 424.444 1060.46 320.289 1013.62 276.829C977.542 243.351 935.797 255.341 900.721 220.812C856.286 177.071 848.766 140.146 840.411 72.9782C832.056 5.81068 842.009 -67.1322 782.383 -116.414C726.32 -162.749 666.21 -161.27 598.143 -143.658C530.077 -126.047 432.795 -86.2646 384.543 -113.314C336.29 -140.364 351.657 -169.551 309.794 -208.997C267.931 -248.443 216.259 -252.926 140.1 -254.759C117.463 -255.304 81.072 -246.505 81.072 -246.505" stroke="white" stroke-opacity="0.3" stroke-width="3"/>
<path d="M1129.78 373.463C1129.78 373.463 1106.05 269.307 1059.21 225.848C1023.13 192.37 981.385 204.36 946.309 169.831C901.874 126.089 894.354 89.1645 885.999 21.997C877.644 -45.1705 887.597 -118.113 827.971 -167.395C771.908 -213.731 711.798 -212.251 643.731 -194.639C575.665 -177.028 478.383 -137.246 430.13 -164.296C381.878 -191.346 397.244 -220.532 355.382 -259.978C313.519 -299.424 261.847 -303.908 185.688 -305.74C163.051 -306.285 126.66 -297.486 126.66 -297.486" stroke="white" stroke-opacity="0.3" stroke-width="3"/>
<path d="M1175.37 322.481C1175.37 322.481 1151.64 218.326 1104.8 174.866C1068.72 141.389 1026.97 153.378 991.899 118.849C947.464 75.1076 939.943 38.1828 931.589 -28.9847C923.234 -96.1522 933.187 -169.095 873.56 -218.376C817.498 -264.712 757.387 -263.233 689.321 -245.621C621.254 -228.01 523.973 -188.227 475.72 -215.277C427.468 -242.327 442.834 -271.514 400.971 -310.96C359.108 -350.406 307.436 -354.889 231.278 -356.722C208.641 -357.267 172.25 -348.468 172.25 -348.468" stroke="white" stroke-opacity="0.3" stroke-width="3"/>
<path d="M1220.95 271.496C1220.95 271.496 1197.23 167.34 1150.39 123.88C1114.31 90.4032 1072.56 102.393 1037.49 67.864C993.051 24.1223 985.53 -12.8026 977.175 -79.9701C968.82 -147.138 978.773 -220.08 919.147 -269.362C863.085 -315.698 802.974 -314.218 734.907 -296.606C666.841 -278.995 569.559 -239.213 521.307 -266.263C473.054 -293.313 488.421 -322.499 446.558 -361.945C404.695 -401.391 353.023 -405.875 276.865 -407.707C254.228 -408.252 217.836 -399.453 217.836 -399.453" stroke="white" stroke-opacity="0.3" stroke-width="3"/>
<path d="M1266.54 220.513C1266.54 220.513 1242.81 116.358 1195.98 72.8981C1159.89 39.4207 1118.15 51.4102 1083.07 16.8816C1038.64 -26.8601 1031.12 -63.785 1022.76 -130.952C1014.41 -198.12 1024.36 -271.063 964.736 -320.344C908.673 -366.68 848.563 -365.201 780.496 -347.589C712.43 -329.977 615.148 -290.195 566.896 -317.245C518.643 -344.295 534.01 -373.481 492.147 -412.927C450.284 -452.374 398.612 -456.857 322.453 -458.69C299.816 -459.235 263.425 -450.435 263.425 -450.435" stroke="white" stroke-opacity="0.3" stroke-width="3"/>
</g>
<defs>
<radialGradient id="paint0_radial_0_52" cx="0" cy="0" r="1" gradientUnits="userSpaceOnUse" gradientTransform="translate(1152.59 -259.5) rotate(-90) scale(361 450.336)">
<stop stop-color="#C4C4C4"/>
<stop offset="0.505208" stop-color="#C4C4C4" stop-opacity="0.37"/>
<stop offset="1" stop-color="#C4C4C4" stop-opacity="0"/>
</radialGradient>
</defs>
</svg>
