<svg width="832" height="1289" viewBox="0 0 832 1289" fill="none" xmlns="http://www.w3.org/2000/svg">
<mask id="mask0_0_61" style="mask-type:alpha" maskUnits="userSpaceOnUse" x="0" y="0" width="1477" height="1289">
<rect y="592.996" width="1252" height="790" transform="rotate(-28.2708 0 592.996)" fill="url(#paint0_radial_0_61)"/>
</mask>
<g mask="url(#mask0_0_61)">
<path d="M1366.04 543.59C1366.04 543.59 1260.04 530.4 1203.22 559.624C1159.45 582.135 1156.49 625.467 1112.08 646.675C1055.81 673.543 1018.53 668.029 952.538 652.992C886.545 637.955 821.36 603.739 754.708 643C692.04 679.915 672.945 736.931 666.305 806.925C659.664 876.918 663.91 981.934 622.035 1018.08C580.16 1054.22 557.958 1029.83 506.606 1055.74C455.254 1081.66 433.429 1128.71 405.751 1199.68C397.524 1220.78 393.393 1257.99 393.393 1257.99" stroke="#C5D2ED" stroke-width="3"/>
<path d="M1333.65 483.355C1333.65 483.355 1227.65 470.165 1170.82 499.389C1127.05 521.9 1124.1 565.232 1079.68 586.44C1023.42 613.307 986.14 607.793 920.146 592.757C854.152 577.72 788.968 543.504 722.316 582.765C659.648 619.679 640.552 676.696 633.912 746.689C627.272 816.683 631.518 921.699 589.643 957.844C547.767 993.989 525.565 969.595 474.214 995.508C422.862 1021.42 401.036 1068.47 373.358 1139.45C365.131 1160.54 361.001 1197.75 361.001 1197.75" stroke="#C5D2ED" stroke-width="3"/>
<path d="M1301.26 423.121C1301.26 423.121 1195.25 409.932 1138.43 439.155C1094.66 461.666 1091.71 504.998 1047.29 526.207C991.025 553.074 953.747 547.56 887.753 532.523C821.76 517.487 756.576 483.27 689.924 522.531C627.255 559.446 608.16 616.462 601.52 686.456C594.879 756.45 599.126 861.466 557.25 897.61C515.375 933.755 493.173 909.362 441.821 935.275C390.469 961.188 368.644 1008.24 340.966 1079.21C332.739 1100.31 328.609 1137.52 328.609 1137.52" stroke="#C5D2ED" stroke-width="3"/>
<path d="M1268.87 362.886C1268.87 362.886 1162.86 349.696 1106.04 378.92C1062.27 401.431 1059.31 444.763 1014.9 465.971C958.632 492.838 921.355 487.325 855.361 472.288C789.367 457.251 724.183 423.035 657.531 462.296C594.863 499.211 575.768 556.227 569.127 626.221C562.487 696.214 566.733 801.23 524.858 837.375C482.983 873.52 460.781 849.127 409.429 875.04C358.077 900.953 336.252 948.004 308.573 1018.98C300.346 1040.07 296.216 1077.29 296.216 1077.29" stroke="#C5D2ED" stroke-width="3"/>
<path d="M1236.47 302.652C1236.47 302.652 1130.46 289.463 1073.64 318.686C1029.87 341.197 1026.92 384.529 982.503 405.738C926.236 432.605 888.958 427.091 822.965 412.054C756.971 397.018 691.787 362.801 625.135 402.062C562.466 438.977 543.371 495.993 536.731 565.987C530.091 635.981 534.337 740.997 492.461 777.141C450.586 813.286 428.384 788.893 377.032 814.806C325.681 840.719 303.855 887.77 276.177 958.744C267.95 979.84 263.82 1017.05 263.82 1017.05" stroke="#C5D2ED" stroke-width="3"/>
<path d="M1204.08 242.417C1204.08 242.417 1098.07 229.228 1041.25 258.452C997.48 280.963 994.525 324.294 950.109 345.503C893.842 372.37 856.565 366.856 790.571 351.82C724.577 336.783 659.393 302.567 592.741 341.828C530.073 378.742 510.978 435.759 504.338 505.752C497.697 575.746 501.943 680.762 460.068 716.907C418.193 753.052 395.991 728.658 344.639 754.571C293.287 780.485 271.462 827.535 243.784 898.509C235.557 919.606 231.426 956.817 231.426 956.817" stroke="#C5D2ED" stroke-width="3"/>
</g>
<defs>
<radialGradient id="paint0_radial_0_61" cx="0" cy="0" r="1" gradientUnits="userSpaceOnUse" gradientTransform="translate(626 1125.5) rotate(-90) scale(361 450.336)">
<stop stop-color="#263F9B"/>
<stop offset="0.505208" stop-color="#263F9B" stop-opacity="0.37"/>
<stop offset="1" stop-color="#263F9B" stop-opacity="0"/>
</radialGradient>
</defs>
</svg>
