<svg width="775" height="1289" viewBox="0 0 775 1289" fill="none" xmlns="http://www.w3.org/2000/svg">
<mask id="mask0_0_70" style="mask-type:alpha" maskUnits="userSpaceOnUse" x="-702" y="0" width="1477" height="1289">
<rect x="-702" y="592.996" width="1252" height="790" transform="rotate(-28.2708 -702 592.996)" fill="url(#paint0_radial_0_70)"/>
</mask>
<g mask="url(#mask0_0_70)">
<path d="M664.044 543.59C664.044 543.59 558.038 530.4 501.217 559.624C457.447 582.135 454.492 625.467 410.076 646.675C353.809 673.543 316.532 668.029 250.538 652.992C184.545 637.955 119.36 603.739 52.7084 643C-9.96001 679.915 -29.0551 736.931 -35.6954 806.925C-42.3357 876.918 -38.0897 981.934 -79.965 1018.08C-121.84 1054.22 -144.042 1029.83 -195.394 1055.74C-246.746 1081.66 -268.571 1128.71 -296.249 1199.68C-304.476 1220.78 -308.607 1257.99 -308.607 1257.99" stroke="#C5D2ED" stroke-width="3"/>
<path d="M631.652 483.355C631.652 483.355 525.646 470.165 468.824 499.389C425.055 521.9 422.099 565.232 377.684 586.44C321.417 613.307 284.14 607.793 218.146 592.757C152.152 577.72 86.9681 543.504 20.3161 582.765C-42.3523 619.679 -61.4475 676.696 -68.0878 746.689C-74.7281 816.683 -70.482 921.699 -112.357 957.844C-154.233 993.989 -176.435 969.595 -227.786 995.508C-279.138 1021.42 -300.963 1068.47 -328.642 1139.45C-336.869 1160.54 -340.999 1197.75 -340.999 1197.75" stroke="#C5D2ED" stroke-width="3"/>
<path d="M599.26 423.121C599.26 423.121 493.253 409.932 436.432 439.155C392.662 461.666 389.707 504.998 345.291 526.207C289.025 553.074 251.747 547.56 185.753 532.523C119.76 517.487 54.5757 483.27 -12.0764 522.531C-74.7448 559.446 -93.8399 616.462 -100.48 686.456C-107.121 756.45 -102.874 861.466 -144.75 897.61C-186.625 933.755 -208.827 909.362 -260.179 935.275C-311.531 961.188 -333.356 1008.24 -361.034 1079.21C-369.261 1100.31 -373.391 1137.52 -373.391 1137.52" stroke="#C5D2ED" stroke-width="3"/>
<path d="M566.867 362.886C566.867 362.886 460.861 349.696 404.039 378.92C360.27 401.431 357.314 444.763 312.899 465.971C256.632 492.838 219.355 487.325 153.361 472.288C87.3673 457.251 22.1832 423.035 -44.4689 462.296C-107.137 499.211 -126.232 556.227 -132.873 626.221C-139.513 696.214 -135.267 801.23 -177.142 837.375C-219.017 873.52 -241.219 849.127 -292.571 875.04C-343.923 900.953 -365.748 948.004 -393.427 1018.98C-401.654 1040.07 -405.784 1077.29 -405.784 1077.29" stroke="#C5D2ED" stroke-width="3"/>
<path d="M534.471 302.652C534.471 302.652 428.464 289.463 371.643 318.686C327.873 341.197 324.918 384.529 280.503 405.738C224.236 432.605 186.958 427.091 120.965 412.054C54.9709 397.018 -10.2132 362.801 -76.8652 402.062C-139.534 438.977 -158.629 495.993 -165.269 565.987C-171.909 635.981 -167.663 740.997 -209.539 777.141C-251.414 813.286 -273.616 788.893 -324.968 814.806C-376.319 840.719 -398.145 887.77 -425.823 958.744C-434.05 979.84 -438.18 1017.05 -438.18 1017.05" stroke="#C5D2ED" stroke-width="3"/>
<path d="M502.077 242.417C502.077 242.417 396.071 229.228 339.25 258.452C295.48 280.963 292.525 324.294 248.109 345.503C191.842 372.37 154.565 366.856 88.5712 351.82C22.5775 336.783 -42.6066 302.567 -109.259 341.828C-171.927 378.742 -191.022 435.759 -197.662 505.752C-204.303 575.746 -200.057 680.762 -241.932 716.907C-283.807 753.052 -306.009 728.658 -357.361 754.571C-408.713 780.485 -430.538 827.535 -458.216 898.509C-466.443 919.606 -470.574 956.817 -470.574 956.817" stroke="#C5D2ED" stroke-width="3"/>
</g>
<defs>
<radialGradient id="paint0_radial_0_70" cx="0" cy="0" r="1" gradientUnits="userSpaceOnUse" gradientTransform="translate(-76 1125.5) rotate(-90) scale(361 450.336)">
<stop stop-color="#263F9B"/>
<stop offset="0.505208" stop-color="#263F9B" stop-opacity="0.37"/>
<stop offset="1" stop-color="#263F9B" stop-opacity="0"/>
</radialGradient>
</defs>
</svg>
