<svg width="67" height="78" viewBox="0 0 67 78" fill="none" xmlns="http://www.w3.org/2000/svg">
<path d="M33.3365 2.90505L35.1146 0.607408C34.6055 0.213639 33.9801 0 33.3365 0C32.6929 0 32.0676 0.213639 31.5585 0.607408L33.3365 2.90505ZM63.8064 11.8566L66.7145 11.904C66.7206 11.5183 66.6498 11.1352 66.5064 10.7771C66.3629 10.419 66.1497 10.0931 65.879 9.8182C65.6084 9.54333 65.2857 9.32504 64.9299 9.17607C64.5741 9.02709 64.1922 8.95039 63.8064 8.95043V11.8566ZM33.3365 74.1023L31.7264 76.5224C32.2032 76.8403 32.7634 77.01 33.3365 77.01C33.9096 77.01 34.4699 76.8403 34.9467 76.5224L33.3365 74.1023ZM2.91206 11.8566V8.95043C2.52647 8.95065 2.14478 9.02754 1.78919 9.17664C1.43359 9.32573 1.1112 9.54405 0.840765 9.8189C0.57033 10.0937 0.357253 10.4196 0.213931 10.7776C0.0706081 11.1356 -9.82268e-05 11.5184 0.0059266 11.904L2.91206 11.8566ZM31.5585 5.20269C44.7497 15.4225 59.8434 14.7647 63.8084 14.7647V8.95043C59.707 8.95043 46.5554 9.46804 35.1185 0.607408L31.5585 5.20269ZM60.9023 11.8091C60.685 25.3105 60.112 34.8349 59.0195 41.8899C57.9389 48.8717 56.3959 53.0541 54.4084 55.9938C52.3953 59.0461 49.8645 60.8577 46.1286 63.0941C42.3532 65.3542 37.5861 67.7902 31.7284 71.6821L34.9486 76.5224C40.5218 72.8082 45.1685 70.4414 49.1138 68.0826C53.0907 65.698 56.5875 63.0744 59.225 59.2496C61.8881 55.3102 63.6188 50.1776 64.7567 42.7789C65.8868 35.4533 66.4874 25.5337 66.7106 11.904L60.9023 11.8091ZM34.9467 71.6821C29.089 67.7902 24.3238 65.3602 20.5543 63.0941C16.8164 60.8597 14.2956 59.0481 12.2883 55.9957C10.3127 53.058 8.76778 48.8835 7.69107 41.8918C6.60053 34.8349 6.03155 25.3105 5.81226 11.8091L0 11.904C0.223245 25.5357 0.81988 35.4533 1.94598 42.7769C3.08591 50.1756 4.8126 55.3082 7.4777 59.2476C10.1072 63.0724 13.6021 65.698 17.5751 68.0826C21.5145 70.4395 26.1591 72.8082 31.7343 76.5224L34.9467 71.6821ZM2.90613 14.7647C6.83168 14.7647 21.9254 15.4225 35.1087 5.20269L31.5525 0.607408C20.1137 9.46804 6.96207 8.95043 2.90613 8.95043V14.7647Z" fill="#004ADF" fill-opacity="0.71"/>
</svg>
