<svg width="722" height="685" viewBox="0 0 722 685" fill="none" xmlns="http://www.w3.org/2000/svg">
<mask id="mask0_0_25" style="mask-type:alpha" maskUnits="userSpaceOnUse" x="-758" y="-626" width="1480" height="1311">
<rect x="-758" width="1252" height="790" transform="rotate(-30 -758 0)" fill="url(#paint0_radial_0_25)"/>
</mask>
<g mask="url(#mask0_0_25)">
<path d="M605.932 -90.6056C605.932 -90.6056 499.575 -100.59 443.662 -69.6652C400.591 -45.8435 398.945 -2.44226 355.19 20.0967C299.759 48.6496 262.332 44.2633 195.915 31.2249C129.498 18.1865 63.3107 -14.0472 -2.12629 27.2073C-63.6522 65.9961 -81.0181 123.563 -85.5432 193.725C-90.0684 263.887 -82.6553 368.727 -123.421 406.119C-164.186 443.511 -187.114 419.799 -237.661 447.25C-288.207 474.701 -308.603 522.389 -334.127 594.166C-341.713 615.501 -344.719 652.82 -344.719 652.82" stroke="white" stroke-opacity="0.3" stroke-width="3"/>
<path d="M571.736 -149.836C571.736 -149.836 465.38 -159.821 409.466 -128.896C366.396 -105.074 364.75 -61.6727 320.994 -39.1338C265.564 -10.5808 228.137 -14.9672 161.72 -28.0056C95.3023 -41.044 29.1153 -73.2777 -36.3216 -32.0232C-97.8475 6.76564 -115.213 64.3322 -119.739 134.494C-124.264 204.657 -116.851 309.497 -157.616 346.889C-198.382 384.281 -221.31 360.568 -271.856 388.019C-322.402 415.47 -342.798 463.158 -368.322 534.935C-375.909 556.27 -378.914 593.589 -378.914 593.589" stroke="white" stroke-opacity="0.3" stroke-width="3"/>
<path d="M537.541 -209.064C537.541 -209.064 431.185 -219.049 375.271 -188.124C332.201 -164.302 330.554 -120.901 286.799 -98.3621C231.369 -69.8091 193.942 -74.1955 127.524 -87.2339C61.1069 -100.272 -5.07997 -132.506 -70.5169 -91.2515C-132.043 -52.4626 -149.409 5.10391 -153.934 75.2661C-158.459 145.428 -151.046 250.268 -191.811 287.66C-232.577 325.052 -255.505 301.34 -306.051 328.791C-356.598 356.242 -376.993 403.93 -402.517 475.707C-410.104 497.042 -413.109 534.361 -413.109 534.361" stroke="white" stroke-opacity="0.3" stroke-width="3"/>
<path d="M503.346 -268.295C503.346 -268.295 396.989 -278.28 341.076 -247.355C298.005 -223.533 296.359 -180.132 252.604 -157.593C197.173 -129.04 159.747 -133.426 93.3291 -146.465C26.9116 -159.503 -39.2753 -191.737 -104.712 -150.482C-166.238 -111.693 -183.604 -54.1268 -188.129 16.0354C-192.654 86.1977 -185.241 191.038 -226.007 228.43C-266.772 265.822 -289.7 242.109 -340.247 269.56C-390.793 297.011 -411.189 344.699 -436.713 416.476C-444.299 437.811 -447.305 475.13 -447.305 475.13" stroke="white" stroke-opacity="0.3" stroke-width="3"/>
<path d="M469.146 -327.524C469.146 -327.524 362.79 -337.508 306.877 -306.583C263.806 -282.761 262.16 -239.36 218.405 -216.821C162.974 -188.268 125.547 -192.655 59.1299 -205.693C-7.28758 -218.731 -73.4745 -250.965 -138.911 -209.711C-200.437 -170.922 -217.803 -113.355 -222.328 -43.1931C-226.854 26.9692 -219.44 131.809 -260.206 169.201C-300.971 206.593 -323.899 182.881 -374.446 210.332C-424.992 237.783 -445.388 285.471 -470.912 357.248C-478.498 378.583 -481.504 415.902 -481.504 415.902" stroke="white" stroke-opacity="0.3" stroke-width="3"/>
<path d="M434.95 -386.753C434.95 -386.753 328.594 -396.738 272.68 -365.813C229.61 -341.991 227.963 -298.59 184.208 -276.051C128.778 -247.498 91.3509 -251.884 24.9334 -264.923C-41.484 -277.961 -107.671 -310.195 -173.108 -268.94C-234.634 -230.152 -252 -172.585 -256.525 -102.423C-261.05 -32.2606 -253.637 72.5793 -294.402 109.971C-335.168 147.363 -358.096 123.651 -408.642 151.102C-459.189 178.553 -479.584 226.241 -505.108 298.018C-512.695 319.353 -515.7 356.672 -515.7 356.672" stroke="white" stroke-opacity="0.3" stroke-width="3"/>
</g>
<defs>
<radialGradient id="paint0_radial_0_25" cx="0" cy="0" r="1" gradientUnits="userSpaceOnUse" gradientTransform="translate(-132 532.5) rotate(-90) scale(361 450.336)">
<stop stop-color="#C4C4C4"/>
<stop offset="0.505208" stop-color="#C4C4C4" stop-opacity="0.37"/>
<stop offset="1" stop-color="#C4C4C4" stop-opacity="0"/>
</radialGradient>
</defs>
</svg>
