<svg width="18" height="18" viewBox="0 0 18 18" fill="none" xmlns="http://www.w3.org/2000/svg">
<path d="M7.8843 0.550088C8.2538 -0.183362 9.3009 -0.183362 9.6704 0.550088L10.6627 2.51966C10.8855 2.96205 11.3987 3.17461 11.8691 3.01938L13.9634 2.3283C14.7433 2.07095 15.4838 2.81139 15.2264 3.59129L14.5353 5.68561C14.3801 6.15602 14.5926 6.66917 15.035 6.89204L17.0046 7.8843C17.7381 8.2538 17.7381 9.3009 17.0046 9.6704L15.035 10.6627C14.5926 10.8855 14.3801 11.3987 14.5353 11.8691L15.2264 13.9634C15.4838 14.7433 14.7433 15.4838 13.9634 15.2264L11.8691 14.5353C11.3987 14.3801 10.8855 14.5926 10.6627 15.035L9.6704 17.0046C9.3009 17.7381 8.2538 17.7381 7.8843 17.0046L6.89204 15.035C6.66917 14.5926 6.15602 14.3801 5.68561 14.5353L3.59129 15.2264C2.81139 15.4838 2.07095 14.7433 2.3283 13.9634L3.01938 11.8691C3.17461 11.3987 2.96205 10.8855 2.51966 10.6627L0.550091 9.6704C-0.183359 9.3009 -0.183359 8.2538 0.550091 7.8843L2.51966 6.89204C2.96205 6.66917 3.17461 6.15602 3.01938 5.68561L2.3283 3.59129C2.07095 2.81139 2.81139 2.07095 3.59129 2.3283L5.68561 3.01938C6.15602 3.17461 6.66917 2.96205 6.89204 2.51966L7.8843 0.550088Z" fill="#004ADF"/>
</svg>
