<svg width="16" height="16" viewBox="0 0 16 16" fill="none" xmlns="http://www.w3.org/2000/svg">
<path d="M8 0.875C6.59081 0.875 5.21327 1.29287 4.04157 2.07578C2.86987 2.85868 1.95664 3.97146 1.41736 5.27338C0.878087 6.5753 0.736988 8.0079 1.01191 9.39002C1.28683 10.7721 1.96542 12.0417 2.96187 13.0381C3.95832 14.0346 5.22787 14.7132 6.60998 14.9881C7.9921 15.263 9.4247 15.1219 10.7266 14.5826C12.0285 14.0434 13.1413 13.1301 13.9242 11.9584C14.7071 10.7867 15.125 9.40919 15.125 8C15.1229 6.11099 14.3715 4.29996 13.0358 2.96423C11.7 1.6285 9.88901 0.877144 8 0.875ZM10.5715 8.19297L8.32153 11.943C8.28821 11.9985 8.24108 12.0444 8.18473 12.0763C8.12839 12.1082 8.06475 12.125 8 12.125C7.93526 12.125 7.87161 12.1082 7.81527 12.0763C7.75893 12.0444 7.7118 11.9985 7.67848 11.943L5.42848 8.19297C5.39561 8.13397 5.37836 8.06754 5.37836 8C5.37836 7.93246 5.39561 7.86603 5.42848 7.80702L7.67848 4.05702C7.71431 4.00483 7.7623 3.96215 7.81832 3.93266C7.87434 3.90317 7.9367 3.88776 8 3.88776C8.06331 3.88776 8.12567 3.90317 8.18168 3.93266C8.2377 3.96215 8.2857 4.00483 8.32153 4.05702L10.5715 7.80702C10.5849 7.83341 10.5966 7.86061 10.6065 7.88848C10.6355 7.99061 10.6229 8.10007 10.5715 8.19297Z" fill="white"/>
</svg>
