<svg width="22" height="22" viewBox="0 0 22 22" fill="none" xmlns="http://www.w3.org/2000/svg">
<path d="M11 0.875C8.9975 0.875 7.03993 1.46882 5.37489 2.58137C3.70984 3.69392 2.41209 5.27523 1.64575 7.12533C0.879418 8.97543 0.678909 11.0112 1.06958 12.9753C1.46026 14.9393 2.42457 16.7435 3.84058 18.1595C5.25659 19.5755 7.06069 20.5398 9.02474 20.9305C10.9888 21.3211 13.0246 21.1206 14.8747 20.3543C16.7248 19.5879 18.3061 18.2902 19.4187 16.6251C20.5312 14.9601 21.125 13.0025 21.125 11C21.122 8.31562 20.0543 5.74206 18.1561 3.84392C16.258 1.94578 13.6844 0.878057 11 0.875ZM20.2325 9.37205C20.2454 9.44509 20.2363 9.52031 20.2065 9.58819C20.1766 9.65608 20.1273 9.71358 20.0647 9.75343C20.0022 9.79328 19.9292 9.81368 19.855 9.81206C19.7809 9.81044 19.7089 9.78687 19.6481 9.74433C19.5874 9.70179 19.5406 9.64219 19.5137 9.57307C19.4868 9.50394 19.4811 9.4284 19.4971 9.35599C19.5132 9.28358 19.5503 9.21756 19.6039 9.16627C19.6575 9.11498 19.7251 9.08073 19.7981 9.06785C19.8466 9.0593 19.8963 9.06038 19.9444 9.07104C19.9925 9.0817 20.038 9.10172 20.0783 9.12997C20.1187 9.15822 20.153 9.19413 20.1795 9.23567C20.206 9.27721 20.224 9.32355 20.2325 9.37205ZM19.3288 7.56943C19.3985 7.54406 19.4741 7.53993 19.5462 7.55756C19.6182 7.57519 19.6834 7.61379 19.7335 7.66847C19.7836 7.72316 19.8164 7.79147 19.8277 7.86477C19.839 7.93808 19.8282 8.01308 19.7969 8.0803C19.7656 8.14752 19.715 8.20393 19.6516 8.24241C19.5882 8.28088 19.5148 8.29969 19.4407 8.29645C19.3666 8.29322 19.2951 8.26808 19.2353 8.22423C19.1755 8.18037 19.13 8.11976 19.1046 8.05006C19.0878 8.00377 19.0803 7.95462 19.0824 7.90541C19.0846 7.8562 19.0964 7.8079 19.1173 7.76326C19.1381 7.71863 19.1675 7.67854 19.2039 7.64528C19.2402 7.61202 19.2827 7.58625 19.329 7.56943H19.3288ZM18.6065 6.17525C18.6708 6.13816 18.7446 6.12096 18.8186 6.12581C18.8926 6.13065 18.9635 6.15734 19.0223 6.20249C19.0812 6.24764 19.1253 6.30922 19.1491 6.37946C19.173 6.44969 19.1755 6.52541 19.1563 6.59706C19.1371 6.6687 19.0971 6.73304 19.0413 6.78194C18.9855 6.83084 18.9165 6.86211 18.843 6.87179C18.7695 6.88148 18.6947 6.86913 18.6282 6.83633C18.5617 6.80353 18.5064 6.75173 18.4693 6.6875C18.4447 6.64484 18.4287 6.59775 18.4223 6.54892C18.4159 6.50008 18.4192 6.45047 18.4319 6.4029C18.4447 6.35533 18.4667 6.31074 18.4967 6.27168C18.5267 6.23262 18.5641 6.19986 18.6068 6.17525H18.6065ZM18.875 11C18.875 12.5575 18.4132 14.0801 17.5479 15.3751C16.6825 16.6702 15.4526 17.6795 14.0137 18.2756C12.5747 18.8716 10.9913 19.0275 9.4637 18.7237C7.9361 18.4198 6.53291 17.6698 5.43157 16.5685C4.33023 15.4671 3.58021 14.0639 3.27635 12.5363C2.97249 11.0087 3.12844 9.42534 3.72448 7.98637C4.32052 6.5474 5.32988 5.31749 6.62492 4.45218C7.91996 3.58686 9.44251 3.125 11 3.125C13.0879 3.1274 15.0895 3.95786 16.5658 5.43419C18.0422 6.91052 18.8726 8.91216 18.875 11ZM17.6534 4.92766C17.7102 4.87998 17.7799 4.85022 17.8536 4.84214C17.9273 4.83407 18.0018 4.84803 18.0676 4.88228C18.1334 4.91652 18.1875 4.9695 18.2232 5.03453C18.2589 5.09955 18.2745 5.1737 18.268 5.24758C18.2615 5.32147 18.2333 5.39178 18.1869 5.44963C18.1405 5.50747 18.0779 5.55025 18.0072 5.57256C17.9365 5.59486 17.8607 5.59569 17.7895 5.57493C17.7183 5.55418 17.6548 5.51278 17.6072 5.45596C17.5432 5.37978 17.5122 5.28132 17.5208 5.18224C17.5295 5.08317 17.5772 4.99159 17.6534 4.92766ZM16.4979 3.86454C16.5456 3.80773 16.609 3.76633 16.6802 3.74558C16.7514 3.72483 16.8272 3.72567 16.8979 3.74797C16.9686 3.77028 17.0312 3.81306 17.0776 3.8709C17.124 3.92875 17.1522 3.99906 17.1587 4.07294C17.1652 4.14683 17.1496 4.22097 17.1139 4.28599C17.0782 4.35101 17.0241 4.404 16.9583 4.43824C16.8925 4.47249 16.818 4.48645 16.7443 4.47838C16.6706 4.4703 16.6009 4.44055 16.5441 4.39287C16.5063 4.36122 16.4752 4.32244 16.4525 4.27876C16.4297 4.23507 16.4158 4.18734 16.4115 4.13828C16.4073 4.08921 16.4127 4.03979 16.4275 3.99282C16.4423 3.94585 16.4662 3.90226 16.4979 3.86454ZM15.1753 3.01827C15.2124 2.95404 15.2677 2.90225 15.3342 2.86945C15.4007 2.83664 15.4755 2.8243 15.549 2.83398C15.6225 2.84366 15.6915 2.87493 15.7473 2.92383C15.8031 2.97274 15.8431 3.03708 15.8623 3.10872C15.8815 3.18036 15.879 3.25609 15.8551 3.32632C15.8313 3.39655 15.7872 3.45814 15.7283 3.50328C15.6695 3.54843 15.5986 3.57512 15.5246 3.57997C15.4506 3.58482 15.3768 3.56761 15.3125 3.53052C15.2264 3.4808 15.1636 3.39889 15.1378 3.30282C15.1121 3.20676 15.1256 3.1044 15.1753 3.01827ZM13.7258 2.41453C13.7512 2.34483 13.7967 2.28423 13.8565 2.24038C13.9163 2.19653 13.9878 2.1714 14.0619 2.16816C14.136 2.16493 14.2094 2.18374 14.2728 2.22222C14.3362 2.2607 14.3867 2.31711 14.4181 2.38433C14.4494 2.45155 14.4601 2.52655 14.4488 2.59985C14.4376 2.67315 14.4048 2.74147 14.3547 2.79615C14.3046 2.85083 14.2394 2.88943 14.1674 2.90706C14.0953 2.92469 14.0197 2.92056 13.95 2.8952C13.9037 2.87836 13.8612 2.85256 13.8249 2.81929C13.7885 2.78601 13.7591 2.74591 13.7383 2.70127C13.7175 2.65663 13.7057 2.60833 13.7036 2.55912C13.7014 2.50992 13.709 2.46077 13.7258 2.41449V2.41453ZM12.628 1.7675C12.701 1.78038 12.7686 1.81463 12.8222 1.86592C12.8758 1.91721 12.9129 1.98323 12.929 2.05564C12.945 2.12805 12.9392 2.20359 12.9124 2.27272C12.8855 2.34184 12.8387 2.40144 12.7779 2.44398C12.7172 2.48652 12.6452 2.51009 12.571 2.51171C12.4969 2.51333 12.4239 2.49293 12.3614 2.45308C12.2988 2.41323 12.2495 2.35573 12.2196 2.28784C12.1897 2.21996 12.1807 2.14474 12.1935 2.0717C12.2021 2.0232 12.2201 1.97686 12.2466 1.93532C12.273 1.89379 12.3074 1.85787 12.3478 1.82962C12.3881 1.80137 12.4336 1.78135 12.4817 1.77069C12.5298 1.76003 12.5795 1.75895 12.628 1.7675ZM11 1.625C11.0742 1.625 11.1467 1.64699 11.2084 1.6882C11.27 1.7294 11.3181 1.78797 11.3465 1.85649C11.3749 1.92502 11.3823 2.00042 11.3678 2.07316C11.3534 2.1459 11.3176 2.21272 11.2652 2.26516C11.2128 2.31761 11.1459 2.35333 11.0732 2.36779C11.0005 2.38226 10.9251 2.37484 10.8565 2.34645C10.788 2.31807 10.7294 2.27001 10.6882 2.20834C10.647 2.14667 10.625 2.07417 10.625 2C10.625 1.90054 10.6645 1.80516 10.7349 1.73484C10.8052 1.66451 10.9006 1.625 11 1.625ZM9.37208 1.7675C9.44513 1.75462 9.52035 1.76368 9.58823 1.79355C9.65612 1.82342 9.71363 1.87275 9.75348 1.9353C9.79334 1.99785 9.81375 2.07081 9.81213 2.14496C9.81052 2.21911 9.78695 2.29112 9.74442 2.35187C9.70188 2.41263 9.64228 2.45941 9.57315 2.4863C9.50403 2.51318 9.42849 2.51896 9.35608 2.50291C9.28367 2.48687 9.21764 2.44971 9.16635 2.39613C9.11506 2.34256 9.08081 2.27498 9.06792 2.20194C9.05937 2.15344 9.06045 2.10373 9.07111 2.05565C9.08176 2.00758 9.10178 1.96207 9.13003 1.92172C9.15827 1.88138 9.19419 1.847 9.23572 1.82054C9.27725 1.79408 9.32359 1.77605 9.37208 1.7675ZM7.79379 2.19039C7.86348 2.16502 7.93913 2.16089 8.01118 2.17852C8.08322 2.19615 8.14841 2.23475 8.19852 2.28943C8.24862 2.34412 8.28139 2.41243 8.29267 2.48574C8.30395 2.55904 8.29324 2.63405 8.2619 2.70126C8.23055 2.76848 8.17998 2.8249 8.11657 2.86337C8.05316 2.90185 7.97977 2.92065 7.90567 2.91742C7.83157 2.91418 7.7601 2.88904 7.70029 2.84519C7.64048 2.80133 7.59501 2.74072 7.56965 2.67103C7.55281 2.62475 7.54524 2.57561 7.54739 2.52641C7.54954 2.47721 7.56136 2.42892 7.58217 2.38429C7.60299 2.33965 7.63239 2.29956 7.66869 2.26629C7.705 2.23302 7.74751 2.20723 7.79379 2.19039ZM6.31254 2.88102C6.37677 2.84394 6.45055 2.82673 6.52456 2.83158C6.59857 2.83643 6.66948 2.86312 6.72832 2.90827C6.78717 2.95341 6.8313 3.015 6.85514 3.08523C6.87899 3.15546 6.88147 3.23119 6.86227 3.30283C6.84307 3.37447 6.80307 3.43881 6.7473 3.48772C6.69154 3.53662 6.62253 3.56789 6.54899 3.57757C6.47546 3.58725 6.40071 3.57491 6.33419 3.5421C6.26767 3.5093 6.21237 3.45751 6.17529 3.39327C6.12556 3.30715 6.11208 3.20479 6.13782 3.10873C6.16356 3.01266 6.22641 2.93075 6.31254 2.88102ZM4.97379 3.81852C5.0306 3.77085 5.10028 3.74109 5.174 3.73301C5.24773 3.72493 5.3222 3.73889 5.38799 3.77314C5.45378 3.80738 5.50794 3.86037 5.54361 3.92539C5.57929 3.99042 5.59488 4.06456 5.58842 4.13845C5.58196 4.21233 5.55374 4.28264 5.50731 4.34049C5.46089 4.39833 5.39836 4.44111 5.32762 4.46342C5.25689 4.48572 5.18113 4.48655 5.10992 4.4658C5.03871 4.44504 4.97526 4.40364 4.92759 4.34682C4.8959 4.3091 4.87196 4.2655 4.85714 4.21851C4.84231 4.17153 4.83689 4.12209 4.84118 4.07301C4.84547 4.02393 4.85939 3.97618 4.88214 3.93248C4.9049 3.88878 4.93604 3.85 4.97379 3.81834V3.81852ZM3.81837 4.97375C3.86604 4.91693 3.92949 4.87552 4.0007 4.85477C4.0719 4.83401 4.14766 4.83483 4.2184 4.85713C4.28914 4.87943 4.35167 4.92221 4.3981 4.98005C4.44453 5.03789 4.47276 5.1082 4.47922 5.18209C4.48569 5.25597 4.4701 5.33012 4.43443 5.39514C4.39876 5.46017 4.3446 5.51316 4.27882 5.54741C4.21303 5.58165 4.13856 5.59562 4.06483 5.58755C3.99111 5.57948 3.92143 5.54972 3.86461 5.50205C3.78842 5.43812 3.74075 5.34655 3.73208 5.24748C3.72341 5.1484 3.75445 5.04994 3.81837 4.97375ZM2.88087 6.3125C2.91796 6.24827 2.97325 6.19647 3.03977 6.16367C3.10629 6.13087 3.18105 6.11852 3.25458 6.12821C3.32812 6.13789 3.39713 6.16916 3.45289 6.21806C3.50865 6.26696 3.54866 6.3313 3.56786 6.40294C3.58705 6.47459 3.58457 6.55031 3.56073 6.62054C3.53689 6.69078 3.49276 6.75236 3.43391 6.79751C3.37507 6.84266 3.30416 6.86935 3.23015 6.87419C3.15614 6.87904 3.08235 6.86184 3.01812 6.82475C2.93203 6.77499 2.86922 6.69307 2.84352 6.59701C2.81781 6.50095 2.83132 6.39861 2.88106 6.3125H2.88087ZM2.19042 7.79375C2.21579 7.72405 2.26126 7.66345 2.32107 7.61959C2.38088 7.57574 2.45236 7.5506 2.52646 7.54737C2.60056 7.54414 2.67395 7.56295 2.73736 7.60143C2.80076 7.63991 2.85134 7.69632 2.88268 7.76355C2.91402 7.83077 2.92473 7.90577 2.91344 7.97908C2.90215 8.05238 2.86938 8.12069 2.81927 8.17537C2.76916 8.23005 2.70396 8.26865 2.63191 8.28627C2.55987 8.3039 2.48422 8.29976 2.41452 8.27439C2.32107 8.24037 2.24496 8.17062 2.20293 8.08048C2.16091 7.99034 2.15641 7.8872 2.19042 7.79375ZM2.2019 9.06804C2.27494 9.08092 2.34252 9.11517 2.39609 9.16646C2.44966 9.21775 2.48683 9.28377 2.50288 9.35618C2.51893 9.42859 2.51315 9.50413 2.48627 9.57325C2.45939 9.64238 2.41261 9.70198 2.35186 9.74452C2.29111 9.78706 2.2191 9.81063 2.14495 9.81225C2.0708 9.81387 1.99784 9.79346 1.93529 9.75362C1.87273 9.71377 1.8234 9.65627 1.79353 9.58838C1.76366 9.5205 1.75458 9.44528 1.76746 9.37224C1.77599 9.32372 1.79399 9.27736 1.82044 9.2358C1.84689 9.19424 1.88127 9.1583 1.92162 9.13004C1.96196 9.10177 2.00748 9.08173 2.05557 9.07106C2.10366 9.06039 2.15338 9.0593 2.2019 9.06785V9.06804ZM1.62504 11C1.62504 10.9258 1.64703 10.8533 1.68823 10.7917C1.72944 10.73 1.78801 10.6819 1.85653 10.6535C1.92505 10.6252 2.00045 10.6177 2.07319 10.6322C2.14594 10.6467 2.21276 10.6824 2.2652 10.7348C2.31764 10.7873 2.35336 10.8541 2.36783 10.9268C2.3823 10.9996 2.37487 11.075 2.34649 11.1435C2.31811 11.212 2.27004 11.2706 2.20837 11.3118C2.14671 11.353 2.0742 11.375 2.00004 11.375C1.90058 11.375 1.8052 11.3355 1.73487 11.2652C1.66454 11.1948 1.62504 11.0995 1.62504 11ZM1.76754 12.628C1.75465 12.5549 1.76372 12.4797 1.79359 12.4118C1.82345 12.3439 1.87278 12.2864 1.93533 12.2466C1.99788 12.2067 2.07085 12.1863 2.145 12.1879C2.21915 12.1895 2.29115 12.2131 2.35191 12.2556C2.41267 12.2982 2.45945 12.3578 2.48633 12.4269C2.51322 12.496 2.519 12.5715 2.50295 12.644C2.4869 12.7164 2.44974 12.7824 2.39617 12.8337C2.34259 12.885 2.27501 12.9192 2.20197 12.9321C2.15348 12.9407 2.10377 12.9396 2.05569 12.9289C2.00761 12.9183 1.9621 12.8983 1.92176 12.87C1.88142 12.8418 1.84704 12.8058 1.82057 12.7643C1.79411 12.7228 1.77609 12.6764 1.76754 12.628ZM2.67129 14.4305C2.60159 14.4559 2.52593 14.46 2.45389 14.4424C2.38185 14.4248 2.31665 14.3862 2.26654 14.3315C2.21643 14.2768 2.18367 14.2085 2.17239 14.1352C2.16111 14.0619 2.17182 13.9869 2.20317 13.9197C2.23451 13.8524 2.28509 13.796 2.3485 13.7575C2.41192 13.7191 2.48531 13.7003 2.55941 13.7035C2.63351 13.7068 2.70498 13.7319 2.76479 13.7758C2.8246 13.8196 2.87006 13.8802 2.89542 13.9499C2.91225 13.9962 2.9198 14.0454 2.91763 14.0946C2.91547 14.1438 2.90363 14.1921 2.88279 14.2367C2.86196 14.2813 2.83254 14.3214 2.79621 14.3547C2.75988 14.3879 2.71735 14.4137 2.67106 14.4305H2.67129ZM3.39354 15.8248C3.3293 15.8618 3.25552 15.879 3.18151 15.8742C3.1075 15.8693 3.03659 15.8427 2.97775 15.7975C2.9189 15.7524 2.87477 15.6908 2.85093 15.6205C2.82709 15.5503 2.82461 15.4746 2.8438 15.4029C2.863 15.3313 2.903 15.267 2.95877 15.2181C3.01453 15.1692 3.08354 15.1379 3.15708 15.1282C3.23061 15.1185 3.30536 15.1309 3.37188 15.1637C3.4384 15.1965 3.4937 15.2483 3.53079 15.3125C3.5554 15.3552 3.57137 15.4023 3.57778 15.4511C3.58419 15.4999 3.58092 15.5495 3.56815 15.5971C3.55539 15.6447 3.53337 15.6893 3.50337 15.7283C3.47337 15.7674 3.43597 15.8001 3.39331 15.8248H3.39354ZM4.34694 17.0723C4.29012 17.12 4.22045 17.1498 4.14672 17.1579C4.07299 17.1659 3.99852 17.152 3.93273 17.1177C3.86694 17.0835 3.81278 17.0305 3.77711 16.9655C3.74143 16.9004 3.72584 16.8263 3.7323 16.7524C3.73876 16.6785 3.76699 16.6082 3.81341 16.5504C3.85983 16.4925 3.92236 16.4497 3.9931 16.4274C4.06383 16.4051 4.13959 16.4043 4.2108 16.4251C4.28201 16.4458 4.34546 16.4872 4.39314 16.544C4.42478 16.5818 4.44867 16.6254 4.46346 16.6723C4.47826 16.7193 4.48365 16.7687 4.47934 16.8178C4.47503 16.8669 4.4611 16.9146 4.43834 16.9583C4.41558 17.0019 4.38445 17.0407 4.34671 17.0723H4.34694ZM5.50242 18.1354C5.45475 18.1922 5.39129 18.2336 5.32009 18.2544C5.24888 18.2752 5.17312 18.2743 5.10239 18.252C5.03165 18.2297 4.96912 18.1869 4.9227 18.1291C4.87627 18.0712 4.84805 18.0009 4.84158 17.927C4.83512 17.8532 4.85072 17.779 4.88639 17.714C4.92207 17.649 4.97623 17.596 5.04202 17.5617C5.10781 17.5275 5.18228 17.5135 5.25601 17.5216C5.32973 17.5297 5.39941 17.5594 5.45622 17.6071C5.53237 17.6711 5.57999 17.7627 5.58861 17.8618C5.59724 17.9608 5.56615 18.0593 5.5022 18.1354H5.50242ZM6.82501 18.9817C6.78793 19.046 6.73263 19.0978 6.66611 19.1306C6.59959 19.1634 6.52484 19.1757 6.4513 19.166C6.37777 19.1563 6.30875 19.1251 6.25299 19.0762C6.19723 19.0273 6.15722 18.9629 6.13803 18.8913C6.11883 18.8196 6.12131 18.7439 6.14515 18.6737C6.16899 18.6034 6.21313 18.5419 6.27197 18.4967C6.33081 18.4516 6.40172 18.4249 6.47573 18.42C6.54974 18.4152 6.62353 18.4324 6.68776 18.4695C6.77385 18.5192 6.83665 18.6012 6.86234 18.6972C6.88804 18.7933 6.87453 18.8956 6.82478 18.9817H6.82501ZM8.27446 19.5855C8.24909 19.6552 8.20362 19.7158 8.14381 19.7596C8.084 19.8035 8.01252 19.8286 7.93843 19.8318C7.86433 19.8351 7.79094 19.8163 7.72754 19.7778C7.66413 19.7393 7.61356 19.6829 7.58222 19.6157C7.55087 19.5485 7.54017 19.4735 7.55145 19.4001C7.56273 19.3268 7.59549 19.2585 7.6456 19.2039C7.6957 19.1492 7.7609 19.1106 7.83294 19.0929C7.90498 19.0753 7.98063 19.0794 8.05032 19.1048C8.14376 19.1389 8.21984 19.2086 8.26183 19.2988C8.30382 19.3889 8.30828 19.4921 8.27423 19.5855L8.27446 19.5855ZM9.37208 20.2325C9.29905 20.2196 9.23147 20.1854 9.17789 20.1341C9.12432 20.0828 9.08716 20.0168 9.0711 19.9444C9.05505 19.872 9.06083 19.7964 9.08771 19.7273C9.1146 19.6582 9.16137 19.5986 9.22212 19.556C9.28288 19.5135 9.35488 19.4899 9.42903 19.4883C9.50318 19.4867 9.57614 19.5071 9.63869 19.5469C9.70125 19.5868 9.75058 19.6443 9.78045 19.7122C9.81032 19.78 9.8194 19.8553 9.80652 19.9283C9.79797 19.9768 9.77995 20.0231 9.75349 20.0647C9.72703 20.1062 9.69265 20.1421 9.65231 20.1704C9.61197 20.1986 9.56646 20.2187 9.51838 20.2293C9.47029 20.24 9.42058 20.2411 9.37208 20.2325ZM11 20.375C10.9259 20.375 10.8534 20.353 10.7917 20.3118C10.73 20.2706 10.682 20.212 10.6536 20.1435C10.6252 20.075 10.6178 19.9996 10.6322 19.9268C10.6467 19.8541 10.6824 19.7873 10.7349 19.7348C10.7873 19.6824 10.8541 19.6467 10.9269 19.6322C10.9996 19.6177 11.075 19.6252 11.1435 19.6535C11.2121 19.6819 11.2706 19.73 11.3118 19.7917C11.353 19.8533 11.375 19.9258 11.375 20C11.375 20.0995 11.3355 20.1948 11.2652 20.2652C11.1949 20.3355 11.0995 20.375 11 20.375ZM12.628 20.2325C12.5549 20.2454 12.4797 20.2363 12.4118 20.2064C12.3439 20.1766 12.2864 20.1273 12.2466 20.0647C12.2067 20.0022 12.1863 19.9292 12.1879 19.855C12.1896 19.7809 12.2131 19.7089 12.2557 19.6481C12.2982 19.5874 12.3578 19.5406 12.4269 19.5137C12.496 19.4868 12.5716 19.481 12.644 19.4971C12.7164 19.5131 12.7824 19.5503 12.8337 19.6039C12.885 19.6574 12.9193 19.725 12.9321 19.7981C12.9407 19.8466 12.9396 19.8963 12.929 19.9443C12.9183 19.9924 12.8983 20.0379 12.87 20.0783C12.8418 20.1186 12.8059 20.153 12.7644 20.1795C12.7228 20.2059 12.6765 20.2239 12.628 20.2325ZM14.2065 19.8095C14.1368 19.8349 14.0611 19.839 13.9891 19.8214C13.917 19.8038 13.8518 19.7652 13.8017 19.7105C13.7516 19.6558 13.7189 19.5875 13.7076 19.5142C13.6963 19.4409 13.707 19.3659 13.7384 19.2987C13.7697 19.2314 13.8203 19.175 13.8837 19.1366C13.9471 19.0981 14.0205 19.0793 14.0946 19.0825C14.1687 19.0857 14.2402 19.1109 14.3 19.1547C14.3598 19.1986 14.4052 19.2592 14.4306 19.3289C14.4475 19.3752 14.455 19.4243 14.4529 19.4735C14.4507 19.5227 14.4389 19.571 14.4181 19.6157C14.3973 19.6603 14.3679 19.7004 14.3316 19.7337C14.2953 19.767 14.2528 19.7928 14.2065 19.8096V19.8095ZM15.6877 19.1189C15.6235 19.156 15.5497 19.1732 15.4757 19.1683C15.4017 19.1635 15.3308 19.1368 15.2719 19.0917C15.2131 19.0465 15.169 18.9849 15.1451 18.9147C15.1213 18.8445 15.1188 18.7687 15.138 18.6971C15.1572 18.6255 15.1972 18.5611 15.253 18.5122C15.3087 18.4633 15.3777 18.432 15.4513 18.4224C15.5248 18.4127 15.5996 18.425 15.6661 18.4578C15.7326 18.4906 15.7879 18.5424 15.825 18.6067C15.8496 18.6493 15.8656 18.6964 15.872 18.7452C15.8784 18.7941 15.8752 18.8437 15.8624 18.8913C15.8496 18.9389 15.8276 18.9835 15.7976 19.0225C15.7676 19.0616 15.7302 19.0944 15.6875 19.119L15.6877 19.1189ZM17.0265 18.1816C16.9697 18.2293 16.9 18.259 16.8263 18.2671C16.7525 18.2752 16.6781 18.2612 16.6123 18.227C16.5465 18.1927 16.4923 18.1397 16.4567 18.0747C16.421 18.0097 16.4054 17.9355 16.4119 17.8617C16.4183 17.7878 16.4465 17.7175 16.493 17.6596C16.5394 17.6018 16.6019 17.559 16.6726 17.5367C16.7434 17.5144 16.8191 17.5135 16.8903 17.5343C16.9615 17.555 17.025 17.5964 17.0727 17.6532C17.1043 17.691 17.1282 17.7346 17.1431 17.7816C17.1579 17.8286 17.1633 17.878 17.159 17.9271C17.1546 17.9761 17.1407 18.0239 17.1179 18.0676C17.0952 18.1112 17.064 18.15 17.0263 18.1817L17.0265 18.1816ZM18.1817 17.0262C18.134 17.0831 18.0706 17.1245 17.9994 17.1452C17.9282 17.166 17.8524 17.1651 17.7817 17.1428C17.7109 17.1205 17.6484 17.0778 17.602 17.0199C17.5556 16.9621 17.5273 16.8918 17.5209 16.8179C17.5144 16.744 17.53 16.6699 17.5657 16.6048C17.6013 16.5398 17.6555 16.4868 17.7213 16.4526C17.787 16.4183 17.8615 16.4044 17.9352 16.4124C18.009 16.4205 18.0786 16.4502 18.1355 16.4979C18.1732 16.5296 18.2043 16.5683 18.2271 16.612C18.2498 16.6557 18.2637 16.7034 18.268 16.7525C18.2723 16.8016 18.2669 16.851 18.2521 16.898C18.2373 16.9449 18.2134 16.9885 18.1817 17.0262ZM19.119 15.6875C19.0819 15.7517 19.0266 15.8035 18.9601 15.8363C18.8936 15.8691 18.8188 15.8815 18.7453 15.8718C18.6718 15.8621 18.6028 15.8308 18.547 15.7819C18.4912 15.733 18.4512 15.6687 18.432 15.5971C18.4128 15.5254 18.4153 15.4497 18.4392 15.3795C18.463 15.3092 18.5071 15.2476 18.566 15.2025C18.6248 15.1573 18.6957 15.1307 18.7697 15.1258C18.8437 15.121 18.9175 15.1382 18.9818 15.1752C19.0679 15.225 19.1307 15.3069 19.1565 15.403C19.1822 15.499 19.1687 15.6014 19.119 15.6875ZM19.8096 14.2062C19.7843 14.2759 19.7388 14.3366 19.679 14.3804C19.6192 14.4243 19.5477 14.4494 19.4736 14.4526C19.3995 14.4559 19.3261 14.4371 19.2627 14.3986C19.1993 14.3601 19.1487 14.3037 19.1174 14.2365C19.0861 14.1692 19.0753 14.0942 19.0866 14.0209C19.0979 13.9476 19.1307 13.8793 19.1808 13.8246C19.2309 13.7699 19.2961 13.7314 19.3682 13.7137C19.4402 13.6961 19.5159 13.7002 19.5855 13.7256C19.6318 13.7425 19.6744 13.7683 19.7107 13.8015C19.747 13.8348 19.7764 13.8749 19.7972 13.9196C19.818 13.9642 19.8298 14.0126 19.832 14.0618C19.8341 14.111 19.8265 14.1602 19.8096 14.2064V14.2062ZM19.7982 12.9319C19.7251 12.919 19.6576 12.8848 19.604 12.8335C19.5504 12.7822 19.5132 12.7162 19.4972 12.6438C19.4811 12.5714 19.4869 12.4958 19.5138 12.4267C19.5407 12.3576 19.5875 12.298 19.6482 12.2554C19.709 12.2129 19.781 12.1893 19.8552 12.1877C19.9293 12.1861 20.0023 12.2065 20.0648 12.2464C20.1274 12.2862 20.1767 12.3437 20.2066 12.4116C20.2364 12.4795 20.2455 12.5547 20.2326 12.6278C20.2241 12.6763 20.2061 12.7226 20.1796 12.7642C20.1532 12.8057 20.1188 12.8417 20.0784 12.8699C20.0381 12.8982 19.9926 12.9182 19.9445 12.9289C19.8964 12.9396 19.8467 12.9407 19.7982 12.9321V12.9319ZM20 11.375C19.9259 11.375 19.8534 11.353 19.7917 11.3118C19.73 11.2706 19.682 11.212 19.6536 11.1435C19.6252 11.075 19.6178 10.9996 19.6322 10.9268C19.6467 10.8541 19.6824 10.7873 19.7349 10.7348C19.7873 10.6824 19.8541 10.6467 19.9269 10.6322C19.9996 10.6177 20.075 10.6252 20.1435 10.6535C20.2121 10.6819 20.2706 10.73 20.3118 10.7917C20.353 10.8533 20.375 10.9258 20.375 11C20.375 11.0995 20.3355 11.1948 20.2652 11.2652C20.1949 11.3355 20.0995 11.375 20 11.375Z" fill="white"/>
</svg>
